<?xml version="1.0" encoding="utf-8"?>
<!-- Svg Vector Icons : http://www.onlinewebfonts.com/icon -->
<!DOCTYPE svg PUBLIC "-//W3C//DTD SVG 1.1//EN" "http://www.w3.org/Graphics/SVG/1.1/DTD/svg11.dtd">
<svg version="1.1" xmlns="http://www.w3.org/2000/svg" xmlns:xlink="http://www.w3.org/1999/xlink" x="0px" y="0px" viewBox="0 0 1000 1000" enable-background="new 0 0 1000 1000" xml:space="preserve">
<metadata> Svg Vector Icons : http://www.onlinewebfonts.com/icon </metadata>
<g><path d="M500,10C229.4,10,10,229.4,10,500c0,270.7,219.4,490,490,490s490-219.3,490-490C990,229.4,770.6,10,500,10z M500,928.8C263.3,928.8,71.3,736.9,71.3,500c0-236.8,192-428.8,428.8-428.8c236.7,0,428.8,192,428.8,428.8C928.8,736.9,736.7,928.8,500,928.8z"/><path d="M829.5,442.7L562.8,176.2c-32.6-32.7-77.5-33.2-110.4,0L185.9,442.7c-19.9,19.9-19.8,52.1,0,72c19.8,19.8,43,19.8,62.8,0l190-199.1v507.3c0,28.1,33.1,50.8,61.3,50.8c28.1,0,61.3-22.7,61.3-50.8V315.6l197.7,199c19.9,19.9,51.4,19.8,71.3,0C849.9,494.8,849.3,462.6,829.5,442.7z"/></g>
</svg>